<svg width="91" height="36" viewBox="0 0 91 36" fill="none" xmlns="http://www.w3.org/2000/svg">
<path id="Vector" d="M18.3799 14.064C17.6014 14.064 16.8404 14.2948 16.1932 14.7273C15.5459 15.1598 15.0414 15.7745 14.7435 16.4938C14.4456 17.213 14.3676 18.0044 14.5195 18.7679C14.6714 19.5314 15.0463 20.2327 15.5967 20.7832C16.1472 21.3336 16.8485 21.7085 17.612 21.8604C18.3755 22.0122 19.1669 21.9343 19.8861 21.6364C20.6053 21.3385 21.2201 20.834 21.6525 20.1867C22.085 19.5395 22.3159 18.7785 22.3159 18C22.3159 16.9561 21.9012 15.955 21.1631 15.2168C20.4249 14.4787 19.4238 14.064 18.3799 14.064ZM4.36388 18C4.36388 14.2827 5.84056 10.7177 8.46907 8.08919C11.0976 5.46068 14.6626 3.984 18.3799 3.984V0C8.44388 0 0.379883 8.064 0.379883 18C0.379883 27.936 8.44388 36 18.3799 36V32.016C14.6626 32.016 11.0976 30.5393 8.46907 27.9108C5.84056 25.2823 4.36388 21.7173 4.36388 18ZM18.3799 22.992C17.3926 22.992 16.4274 22.6992 15.6065 22.1507C14.7855 21.6022 14.1457 20.8225 13.7679 19.9104C13.39 18.9982 13.2912 17.9945 13.4838 17.0261C13.6764 16.0578 14.1519 15.1683 14.85 14.4701C15.5482 13.772 16.4376 13.2965 17.406 13.1039C18.3743 12.9113 19.3781 13.0102 20.2902 13.388C21.2024 13.7658 21.9821 14.4057 22.5306 15.2266C23.0791 16.0475 23.3719 17.0127 23.3719 18H27.3559C27.3559 16.2247 26.8294 14.4893 25.8432 13.0132C24.8569 11.5371 23.455 10.3866 21.8148 9.70726C20.1747 9.02789 18.3699 8.85013 16.6288 9.19647C14.8876 9.54281 13.2882 10.3977 12.0329 11.653C10.7776 12.9083 9.92269 14.5077 9.57635 16.2489C9.23001 17.99 9.40777 19.7948 10.0871 21.435C10.7665 23.0751 11.917 24.477 13.3931 25.4633C14.8692 26.4496 16.6046 26.976 18.3799 26.976V22.992ZM18.3799 3.984V7.968C21.0405 7.968 23.5922 9.02494 25.4736 10.9063C27.3549 12.7877 28.4119 15.3393 28.4119 18C28.4119 20.6607 27.3549 23.2123 25.4736 25.0937C23.5922 26.9751 21.0405 28.032 18.3799 28.032V32.016C22.0972 32.016 25.6622 30.5393 28.2907 27.9108C30.9192 25.2823 32.3959 21.7173 32.3959 18C32.3959 14.2827 30.9192 10.7177 28.2907 8.08919C25.6622 5.46068 22.0972 3.984 18.3799 3.984ZM40.7047 24.5213H40.6912L39.2445 21.84H38.4084L40.3207 25.3238L40.2938 25.3718C40.1085 25.7482 39.882 26.0026 39.4231 26.0026C39.2885 26.0013 39.1546 25.9829 39.0247 25.9478V26.6054C39.1817 26.6686 39.3499 26.699 39.5191 26.6947C40.1911 26.6947 40.65 26.304 40.9792 25.5773L42.6592 21.84H41.8845L40.7047 24.5213ZM46.696 23.8627H44.3296V21.84H43.5799V26.64H44.3335V24.5482H46.6999V26.64H47.4535V21.84H46.6999L46.696 23.8627ZM49.6212 25.4054H49.601V21.84H48.8464V26.64H49.5319L52.1575 23.0746H52.1719V26.64H52.9255V21.84H52.24L49.6212 25.4054ZM57.0871 24.0614C57.2677 23.9768 57.42 23.8418 57.5258 23.6727C57.6315 23.5036 57.6862 23.3076 57.6832 23.1082C57.6832 22.4227 57.1005 21.84 56.2432 21.84H54.3232V26.64H56.3479C57.2743 26.64 57.9252 25.9882 57.9252 25.2346C57.9232 24.6038 57.4365 24.192 57.0871 24.0614ZM55.0778 22.4918H56.2432C56.6551 22.4918 56.9287 22.7654 56.9287 23.1427C56.9287 23.52 56.6551 23.7946 56.2432 23.7946H55.0778V22.4918ZM56.3479 25.9882H55.0778V24.4118H56.3479C56.8279 24.4118 57.1706 24.7546 57.1706 25.2C57.1706 25.6454 56.8279 25.9882 56.3479 25.9882ZM59.8039 24.4934H61.8957V23.808H59.7981V22.5254H62.4381V21.84H59.0445V26.64H62.5072V25.9546H59.7981L59.8039 24.4934ZM65.4573 21.84H63.5373V26.64H64.2909V24.9254H65.4573C66.3828 24.9254 67.0682 24.24 67.0682 23.3827C67.0682 22.5254 66.377 21.84 65.4516 21.84H65.4573ZM65.4573 24.24H64.2852V22.5254H65.4516C65.6789 22.5254 65.897 22.6158 66.0578 22.7765C66.2185 22.9373 66.3088 23.1554 66.3088 23.3827C66.3088 23.6101 66.2185 23.8281 66.0578 23.9889C65.897 24.1497 65.6789 24.24 65.4516 24.24H65.4573ZM70.4109 26.0227C69.9381 26.0227 69.4847 25.8349 69.1503 25.5006C68.816 25.1663 68.6282 24.7128 68.6282 24.24C68.6282 23.7672 68.816 23.3138 69.1503 22.9794C69.4847 22.6451 69.9381 22.4573 70.4109 22.4573C70.6834 22.4538 70.9532 22.5118 71.2002 22.627C71.4472 22.7422 71.665 22.9116 71.8375 23.1226L72.3655 22.6906C72.1284 22.4019 71.8299 22.1697 71.4918 22.0107C71.1537 21.8518 70.7845 21.7702 70.4109 21.7718C68.9709 21.7718 67.8736 22.8682 67.8736 24.24C67.8736 25.6118 68.9709 26.7082 70.4109 26.7082C70.7911 26.7083 71.1666 26.6242 71.5104 26.4619C71.8542 26.2995 72.1577 26.063 72.3991 25.7693L71.8711 25.3373C71.585 25.6522 71.1453 26.0227 70.4052 26.0227H70.4109ZM74.1415 25.4054H74.1204V21.84H73.3658V26.64H74.0522L76.6778 23.0746H76.6922V26.64H77.4458V21.84H76.7604L74.1415 25.4054ZM78.378 22.5254H79.818V26.64H80.5725V22.5254H82.0125V21.84H78.3722L78.378 22.5254ZM83.6944 24.4934H85.7863V23.808H83.6887V22.5254H86.3287V21.84H82.9341V26.64H86.3959V25.9546H83.6887L83.6944 24.4934ZM87.1428 21.84V22.5254H88.5828V26.64H89.3373V22.5254H90.7773V21.84H87.1428ZM43.9428 13.296L39.2781 8.28192H38.5399V18H40.5856V12.528L43.6509 15.744H44.2269L47.2922 12.5261V17.9981H49.338V8.28576H48.6007L43.9428 13.296ZM53.274 14.1677V8.4H51.2292V18.1142H52.0202L57.9799 12.2294V18H60.0247V8.28576H59.2336L53.274 14.1677ZM66.3424 10.1472C67.4052 10.1472 68.3527 10.7232 68.9748 11.6678L70.4148 10.2758C69.9494 9.63039 69.3377 9.10433 68.6299 8.74074C67.9221 8.37716 67.1382 8.18637 66.3424 8.184C63.5796 8.184 61.2544 10.3632 61.2544 13.1962C61.2544 16.0291 63.5844 18.2083 66.3424 18.2083C67.1382 18.206 67.9221 18.0152 68.6299 17.6516C69.3377 17.288 69.9494 16.7619 70.4148 16.1165L68.9748 14.7245C68.3527 15.6691 67.4052 16.2451 66.3424 16.2451C64.6922 16.2451 63.3482 14.9798 63.3482 13.1962C63.3482 11.4125 64.6864 10.151 66.3367 10.151L66.3424 10.1472ZM73.768 14.1677V8.4H71.7165V18.1142H72.5085L78.4759 12.2294V18H80.5216V8.28576H79.7296L73.768 14.1677ZM86.8365 16.2451C85.1853 16.2451 83.8423 14.9798 83.8423 13.1962C83.8423 11.4125 85.1863 10.1472 86.8365 10.1472C87.8992 10.1472 88.8468 10.7232 89.4679 11.6678L90.9079 10.2758C90.4424 9.6305 89.8307 9.10453 89.1229 8.74095C88.4151 8.37738 87.6313 8.18652 86.8356 8.184C84.0717 8.184 81.7418 10.3632 81.7418 13.1962C81.7418 16.0291 84.0717 18.2083 86.8356 18.2083C87.631 18.2062 88.4145 18.016 89.1223 17.6531C89.8301 17.2902 90.442 16.765 90.9079 16.1203L89.4679 14.7283C88.841 15.673 87.8935 16.249 86.8308 16.249L86.8365 16.2451Z" fill="white" style="fill:white;fill:white;fill-opacity:1;"/>
</svg>
