<svg width="65" height="36" viewBox="0 0 65 36" fill="none" xmlns="http://www.w3.org/2000/svg">
<g id="Group 851212473">
<path id="Vector" d="M64.1117 34.3333C64.1117 34.7753 63.9361 35.1993 63.6235 35.5118C63.311 35.8244 62.887 36 62.445 36H2.24899C1.80695 36 1.38301 35.8244 1.07044 35.5118C0.757875 35.1993 0.582275 34.7753 0.582275 34.3333V1.66671C0.582275 1.22467 0.757875 0.800739 1.07044 0.488169C1.38301 0.1756 1.80695 0 2.24899 0H62.445C62.887 0 63.311 0.1756 63.6235 0.488169C63.9361 0.800739 64.1117 1.22467 64.1117 1.66671V34.3333ZM14.8409 6.85931C13.5323 7.73066 13.3324 9.73806 14.413 10.8754C15.6088 12.1329 17.9202 12.0214 18.9055 10.5714C19.8323 9.2074 19.3334 7.28595 17.8137 6.62325C16.8495 6.20221 15.7129 6.2782 14.8409 6.85931ZM10.103 11.1002C10.1064 11.1001 10.1097 11.0992 10.1127 11.0974C10.1156 11.0957 10.1181 11.0932 10.1198 11.0902L11.6003 8.59017C11.6024 8.58628 11.6058 8.58322 11.6099 8.58148C11.614 8.57974 11.6185 8.57941 11.6228 8.58056C11.6271 8.58171 11.6309 8.58425 11.6336 8.5878C11.6363 8.59135 11.6377 8.59569 11.6376 8.60014V11.6296C11.6376 11.6349 11.6397 11.64 11.6435 11.6437C11.6472 11.6475 11.6523 11.6495 11.6576 11.6495L12.7388 11.6458C12.7441 11.6458 12.7492 11.6437 12.7529 11.64C12.7566 11.6362 12.7587 11.6312 12.7587 11.6259V6.46318C12.7587 6.4579 12.7566 6.45283 12.7529 6.44909C12.7492 6.44535 12.7441 6.44325 12.7388 6.44325L11.7734 6.44761C11.77 6.44769 11.7666 6.44865 11.7637 6.45039C11.7608 6.45214 11.7583 6.45461 11.7566 6.45758L9.8775 9.65585C9.87579 9.65885 9.87333 9.66135 9.87035 9.66312C9.86738 9.66488 9.864 9.66584 9.86055 9.6659C9.85709 9.66596 9.85368 9.66513 9.85065 9.66348C9.84762 9.66182 9.84506 9.65941 9.84324 9.65647L7.92553 6.44574C7.92382 6.44278 7.92137 6.4403 7.91843 6.43856C7.91548 6.43681 7.91213 6.43585 7.90871 6.43578L6.95515 6.43266C6.94986 6.43266 6.94479 6.43476 6.94105 6.4385C6.93732 6.44224 6.93522 6.44731 6.93522 6.4526V11.6265C6.93522 11.6291 6.93573 11.6317 6.93673 11.6341C6.93774 11.6366 6.9392 11.6387 6.94105 11.6406C6.9429 11.6425 6.9451 11.6439 6.94752 11.6449C6.94994 11.6459 6.95253 11.6464 6.95515 11.6464L8.03639 11.6495C8.04168 11.6495 8.04675 11.6475 8.05049 11.6437C8.05422 11.64 8.05632 11.6349 8.05632 11.6296V8.65931C8.05635 8.655 8.05776 8.65082 8.06036 8.64739C8.06296 8.64396 8.0666 8.64146 8.07074 8.64026C8.07487 8.63907 8.07928 8.63925 8.08331 8.64078C8.08734 8.6423 8.09076 8.64509 8.09307 8.64872L9.57543 11.0958C9.57714 11.0988 9.57958 11.1013 9.58253 11.103C9.58547 11.1048 9.58882 11.1057 9.59224 11.1058L10.103 11.1002ZM21.1428 10.0794C21.1453 10.0805 21.1476 10.0822 21.1494 10.0842C21.1513 10.0863 21.1526 10.0887 21.1534 10.0914C21.1542 10.094 21.1544 10.0967 21.1539 10.0994C21.1535 10.1021 21.1524 10.1046 21.1509 10.1068L20.1194 11.6091C20.102 11.6344 20.1086 11.6471 20.1394 11.6471H21.324C21.346 11.6471 21.363 11.6379 21.3751 11.6197L22.2495 10.288C22.2603 10.2714 22.2759 10.2629 22.2963 10.2625L23.3065 10.2606C23.3206 10.2606 23.3341 10.2662 23.3442 10.2763C23.3542 10.2863 23.3599 10.2999 23.3601 10.3142L23.3632 11.6053C23.3632 11.6336 23.3775 11.6477 23.4062 11.6477L24.4942 11.6464C24.5192 11.6464 24.5316 11.634 24.5316 11.6091L24.5297 6.47377C24.5297 6.44844 24.5173 6.43474 24.4924 6.43266C24.3684 6.42145 24.1959 6.44823 24.1149 6.44761C23.5012 6.44512 22.8873 6.44512 22.2732 6.44761C21.0568 6.45322 20.0509 7.11903 20.0777 8.42325C20.0935 9.20844 20.4485 9.76049 21.1428 10.0794ZM28.4841 9.5836C28.4958 9.56823 28.5113 9.56055 28.5309 9.56055H57.6647C57.6846 9.56055 57.6948 9.55038 57.6952 9.53004L57.7077 8.69855C57.7077 8.67571 57.6965 8.66471 57.674 8.66554C57.149 8.68298 56.5423 8.65806 56.1039 8.65806C47.7371 8.65682 39.3703 8.65702 31.0035 8.65868C30.3651 8.65868 29.3667 8.67862 28.547 8.66865C28.5259 8.66823 28.5086 8.65972 28.4954 8.64311C27.6614 7.60111 26.3839 8.94519 27.2136 9.71938C27.6041 10.0831 28.1596 10.0115 28.4841 9.5836ZM28.2761 20.2609C29.4732 20.1943 30.6292 19.7358 30.8833 18.4466C31.2228 16.7269 29.8737 15.7684 28.2985 15.7011C28.2818 15.7005 28.2659 15.6933 28.2543 15.6811C28.2427 15.6689 28.2362 15.6526 28.2363 15.6357V15.2047C28.2363 15.1785 28.2232 15.1655 28.197 15.1655H27.17C27.1438 15.1655 27.1307 15.1785 27.1307 15.2047V15.6768C27.1307 15.6959 27.1214 15.7057 27.1027 15.7061C25.9479 15.7572 24.8879 16.1614 24.526 17.3641C24.4085 17.7556 24.394 18.1285 24.4824 18.4827C24.8001 19.752 25.9 20.1855 27.0971 20.2534C27.1195 20.2547 27.1307 20.2665 27.1307 20.2889V20.8028C27.1307 20.8235 27.1411 20.8339 27.1619 20.8339H28.1895C28.2207 20.8339 28.2363 20.8183 28.2363 20.7872V20.3026C28.2363 20.2761 28.2495 20.2621 28.2761 20.2609ZM18.1706 17.3136C17.6804 19.2874 19.3097 20.9329 21.2904 20.6633C22.2545 20.532 22.9544 20.0832 23.39 19.3167C23.8702 18.4721 23.8658 17.4195 23.3526 16.593C22.1175 14.6037 18.7585 14.9475 18.1706 17.3136ZM39.0898 16.3345C39.6628 16.2536 40.1623 16.4821 40.5715 16.9063C40.5898 16.9254 40.6085 16.9258 40.6276 16.9075L41.3314 16.2442C41.3459 16.2305 41.347 16.216 41.3345 16.2006C41.1269 15.9461 40.9014 15.7574 40.6581 15.6345C39.1185 14.8565 37.0394 15.447 36.5462 17.2246C36.0996 18.8327 37.0531 20.3637 38.6999 20.6458C39.6516 20.809 40.6949 20.5424 41.3401 19.7875C41.3555 19.7697 41.3547 19.7527 41.3376 19.7365L40.6376 19.0794C40.6189 19.0619 40.5998 19.0615 40.5803 19.0781C40.2078 19.402 39.9549 19.6212 39.4324 19.6518C37.2338 19.7813 36.9877 16.6322 39.0898 16.3345ZM42.967 17.6743C43.2286 16.2442 44.8909 15.888 45.8644 16.9051C45.8827 16.9242 45.9016 16.9246 45.9211 16.9063L46.6262 16.2448C46.644 16.2278 46.6448 16.21 46.6286 16.1913C46.25 15.7582 45.7764 15.4844 45.2079 15.3698C43.5132 15.0284 41.8745 15.982 41.7363 17.7988C41.5338 20.4577 44.8249 21.6255 46.6019 19.8417C46.6479 19.7956 46.6473 19.7504 46.6 19.706L45.9248 19.0707C45.9066 19.0536 45.8891 19.0545 45.8725 19.0731C44.7433 20.3444 42.645 19.4307 42.967 17.6743ZM8.09556 20.6003C8.10167 20.6003 8.10754 20.5979 8.11186 20.5936C8.11618 20.5893 8.11861 20.5834 8.11861 20.5773L8.12608 16.3881C8.12608 16.382 8.12851 16.3761 8.13283 16.3718C8.13715 16.3675 8.14301 16.3651 8.14913 16.3651H10.4356C10.4417 16.3651 10.4475 16.3675 10.4519 16.3718C10.4562 16.3761 10.4586 16.382 10.4586 16.3881L10.4698 20.5773C10.4698 20.5834 10.4722 20.5893 10.4766 20.5936C10.4809 20.5979 10.4868 20.6003 10.4929 20.6003H11.6177C11.6238 20.6003 11.6297 20.5979 11.634 20.5936C11.6383 20.5893 11.6408 20.5834 11.6408 20.5773L11.6414 15.4071C11.6414 15.401 11.6389 15.3952 11.6346 15.3908C11.6303 15.3865 11.6244 15.3841 11.6183 15.3841H6.95826C6.95215 15.3841 6.94629 15.3865 6.94197 15.3908C6.93764 15.3952 6.93522 15.401 6.93522 15.4071V20.5773C6.93522 20.5834 6.93764 20.5893 6.94197 20.5936C6.94629 20.5979 6.95215 20.6003 6.95826 20.6003H8.09556ZM14.1682 19.1566C14.6939 19.1435 15.2831 19.2064 15.7938 19.1087C16.5848 18.9561 17.2027 18.492 17.3677 17.7073C17.6555 16.3364 16.5668 15.3841 15.2657 15.3841C14.495 15.3841 13.7262 15.3841 12.9593 15.3841C12.9515 15.3841 12.9441 15.3872 12.9386 15.3928C12.9331 15.3984 12.93 15.406 12.93 15.414V20.5692C12.93 20.59 12.9404 20.6003 12.9612 20.6003H14.0978C14.1061 20.6003 14.114 20.5971 14.1199 20.5912C14.1257 20.5854 14.129 20.5775 14.129 20.5692V19.1971C14.129 19.1709 14.1421 19.1574 14.1682 19.1566ZM33.0284 17.4457L33.0128 16.4143C33.0126 16.4058 33.0141 16.3974 33.0173 16.3896C33.0204 16.3817 33.025 16.3746 33.031 16.3685C33.0369 16.3625 33.0439 16.3577 33.0517 16.3544C33.0595 16.3512 33.0679 16.3495 33.0763 16.3495H35.7103C35.7311 16.3495 35.7414 16.3391 35.7414 16.3183V15.4152C35.7414 15.407 35.7382 15.399 35.7323 15.3932C35.7265 15.3874 35.7186 15.3841 35.7103 15.3841H31.8643C31.856 15.3841 31.8481 15.3874 31.8423 15.3932C31.8364 15.399 31.8331 15.407 31.8331 15.4152V20.5692C31.8331 20.5775 31.8364 20.5854 31.8423 20.5912C31.8481 20.5971 31.856 20.6003 31.8643 20.6003H35.7963C35.822 20.6003 35.8349 20.5873 35.8349 20.5611V19.6599C35.8349 19.6533 35.8322 19.6469 35.8274 19.6422C35.8226 19.6376 35.8161 19.6349 35.8093 19.6349H33.0477C33.0269 19.6349 33.0165 19.6246 33.0165 19.6038V18.4665C33.0165 18.4603 33.0178 18.4542 33.0202 18.4486C33.0226 18.4429 33.0262 18.4378 33.0306 18.4335C33.0351 18.4292 33.0404 18.4258 33.0462 18.4236C33.052 18.4213 33.0583 18.4202 33.0645 18.4204C33.8339 18.4437 34.6033 18.4424 35.3727 18.4167C35.3972 18.4158 35.4097 18.4032 35.4101 18.3787L35.425 17.5541C35.4259 17.5088 35.4035 17.4862 35.3578 17.4862H33.0695C33.0425 17.4862 33.0288 17.4727 33.0284 17.4457ZM51.133 15.3841C51.1296 15.3841 51.1263 15.3849 51.1233 15.3864C51.1202 15.3879 51.1176 15.3901 51.1156 15.3928L48.689 18.7349C48.6862 18.7386 48.6824 18.7413 48.678 18.7427C48.6737 18.744 48.669 18.744 48.6647 18.7425C48.6603 18.7411 48.6565 18.7383 48.6539 18.7346C48.6512 18.7309 48.6497 18.7264 48.6497 18.7219L48.6504 15.4059C48.6504 15.4001 48.6481 15.3946 48.644 15.3905C48.6399 15.3864 48.6344 15.3841 48.6286 15.3841H47.4882C47.4824 15.3841 47.4768 15.3864 47.4727 15.3905C47.4687 15.3946 47.4664 15.4001 47.4664 15.4059V20.5785C47.4664 20.5843 47.4687 20.5899 47.4727 20.594C47.4768 20.598 47.4824 20.6003 47.4882 20.6003H48.585C48.5884 20.6003 48.5917 20.5996 48.5947 20.598C48.5977 20.5965 48.6004 20.5943 48.6024 20.5916L51.024 17.2619C51.0267 17.2583 51.0306 17.2556 51.0349 17.2542C51.0393 17.2528 51.044 17.2529 51.0483 17.2543C51.0527 17.2558 51.0565 17.2586 51.0591 17.2623C51.0618 17.266 51.0632 17.2704 51.0632 17.275V20.5785C51.0632 20.5843 51.0655 20.5899 51.0696 20.594C51.0737 20.598 51.0793 20.6003 51.085 20.6003H52.2248C52.2306 20.6003 52.2362 20.598 52.2402 20.594C52.2443 20.5899 52.2466 20.5843 52.2466 20.5785V15.4059C52.2466 15.4001 52.2443 15.3946 52.2402 15.3905C52.2362 15.3864 52.2306 15.3841 52.2248 15.3841H51.133ZM54.307 19.0675L53.2756 20.5717C53.2736 20.5744 53.2725 20.5776 53.2723 20.5809C53.2721 20.5842 53.2729 20.5875 53.2745 20.5905C53.2761 20.5934 53.2785 20.5959 53.2814 20.5976C53.2844 20.5994 53.2877 20.6003 53.2911 20.6003H54.4857C54.5065 20.6003 54.5227 20.5916 54.5343 20.5742L55.4125 19.2426C55.425 19.2239 55.4426 19.2145 55.4655 19.2145H56.4975C56.5183 19.2145 56.5286 19.2249 56.5286 19.2457V20.5692C56.5286 20.59 56.539 20.6003 56.5598 20.6003H57.6672C57.6863 20.6003 57.6958 20.5908 57.6958 20.5717L57.6983 15.4034C57.6987 15.3909 57.6927 15.3847 57.6803 15.3847C56.9731 15.383 56.2691 15.3833 55.5682 15.3853C54.4135 15.3897 53.3908 15.84 53.2563 17.1268C53.1662 17.9938 53.5122 18.6243 54.2945 19.0183C54.3178 19.03 54.3219 19.0464 54.307 19.0675ZM50.9798 26.2962C50.9833 26.2911 50.9883 26.2872 50.9942 26.2852C51 26.2832 51.0063 26.2832 51.0122 26.2851C51.0181 26.2869 51.0232 26.2907 51.0268 26.2957C51.0304 26.3008 51.0322 26.3068 51.0321 26.313V29.6003C51.0321 29.6315 51.0477 29.6471 51.0788 29.6471H52.1744C52.1989 29.6471 52.2111 29.6348 52.2111 29.6103L52.1962 24.3355C52.1962 24.3156 52.1862 24.3058 52.1663 24.3062C51.8607 24.3087 51.5551 24.3039 51.2495 24.2919C51.1392 24.2875 51.143 24.3467 51.0925 24.4171C50.3459 25.4597 49.59 26.514 48.8248 27.5799C48.7529 27.6799 48.7168 27.6683 48.7164 27.545L48.7102 24.3386C48.7102 24.3203 48.7008 24.311 48.6821 24.3106L47.5772 24.2875C47.5729 24.2875 47.5686 24.2882 47.5646 24.2898C47.5606 24.2914 47.557 24.2938 47.5539 24.2968C47.5508 24.2998 47.5484 24.3034 47.5467 24.3074C47.5451 24.3114 47.5442 24.3156 47.5442 24.3199V29.6003C47.5442 29.6315 47.5598 29.6471 47.5909 29.6471H48.5277C48.5497 29.6471 48.5673 29.6381 48.5806 29.6203L50.9798 26.2962ZM53.1834 25.2019C53.1835 25.2074 53.1858 25.2127 53.1898 25.2167C53.1937 25.2206 53.199 25.2229 53.2046 25.223L54.8706 25.2286C54.8764 25.2286 54.882 25.2309 54.8861 25.235C54.8902 25.2391 54.8924 25.2447 54.8924 25.2504L54.8763 29.6253C54.8763 29.631 54.8786 29.6366 54.8826 29.6407C54.8867 29.6448 54.8923 29.6471 54.8981 29.6471H56.0341C56.0399 29.6471 56.0454 29.6448 56.0495 29.6407C56.0536 29.6366 56.0559 29.631 56.0559 29.6253L56.0515 25.2455C56.0515 25.2397 56.0538 25.2341 56.0579 25.2301C56.062 25.226 56.0676 25.2237 56.0733 25.2237L57.7369 25.2274C57.7427 25.2274 57.7483 25.2251 57.7524 25.221C57.7564 25.2169 57.7587 25.2114 57.7587 25.2056V24.3193C57.7587 24.3135 57.7564 24.308 57.7524 24.3039C57.7483 24.2998 57.7427 24.2975 57.7369 24.2975L53.194 24.31C53.1882 24.31 53.1826 24.3123 53.1786 24.3164C53.1745 24.3204 53.1722 24.326 53.1722 24.3318L53.1834 25.2019ZM43.9 26.3927H6.98068C6.97209 26.3927 6.96386 26.3961 6.95778 26.4022C6.95171 26.4083 6.9483 26.4165 6.9483 26.4251L6.94269 27.2684C6.94269 27.272 6.9434 27.2756 6.94478 27.2789C6.94615 27.2823 6.94817 27.2853 6.95072 27.2878C6.95326 27.2904 6.95628 27.2924 6.95961 27.2938C6.96293 27.2951 6.9665 27.2958 6.9701 27.2958H43.8408C43.8624 27.2958 43.8794 27.305 43.8919 27.3233C44.5353 28.2843 45.8943 27.3612 45.3176 26.4388C45.0124 25.9505 44.3248 25.9075 43.9523 26.3678C43.9386 26.3844 43.9212 26.3927 43.9 26.3927Z" fill="white" style="fill:white;fill:white;fill-opacity:1;"/>
<path id="Vector_2" d="M16.7138 7.3961C18.4042 7.54122 18.6969 10.0394 17.1261 10.6031C16.1875 10.94 15.2127 10.4735 14.9823 9.50129C14.7076 8.3453 15.4718 7.28959 16.7138 7.3961Z" fill="white" style="fill:white;fill:white;fill-opacity:1;"/>
<path id="Vector_3" d="M23.3495 9.29901C23.3495 9.30297 23.3479 9.30677 23.3451 9.30958C23.3423 9.31238 23.3385 9.31396 23.3345 9.31396H22.1929C21.9529 9.31396 21.7227 9.22202 21.553 9.05838C21.3832 8.89473 21.2879 8.67279 21.2879 8.44136V8.29935C21.2879 8.06793 21.3832 7.84598 21.553 7.68234C21.7227 7.51869 21.9529 7.42676 22.1929 7.42676H23.3345C23.3385 7.42676 23.3423 7.42833 23.3451 7.43114C23.3479 7.43394 23.3495 7.43774 23.3495 7.44171V9.29901Z" fill="white" style="fill:white;fill:white;fill-opacity:1;"/>
<path id="Vector_4" d="M21.1471 19.6411C18.7623 19.9606 18.6626 16.1837 21.0095 16.3376C22.9739 16.4659 23.0337 19.3882 21.1471 19.6411Z" fill="white" style="fill:white;fill:white;fill-opacity:1;"/>
<path id="Vector_5" d="M14.1259 16.3863C14.1259 16.382 14.1276 16.3779 14.1306 16.3748C14.1336 16.3718 14.1378 16.3701 14.142 16.3701L15.2563 16.3657C15.3801 16.3653 15.5027 16.3864 15.6173 16.4278C15.7318 16.4692 15.8359 16.5301 15.9237 16.6071C16.0115 16.6841 16.0813 16.7756 16.129 16.8764C16.1767 16.9773 16.2014 17.0854 16.2018 17.1947V17.3355C16.2025 17.5561 16.104 17.768 15.9278 17.9247C15.7517 18.0813 15.5124 18.1698 15.2625 18.1707L14.1483 18.1751C14.144 18.1751 14.1399 18.1734 14.1368 18.1703C14.1338 18.1673 14.1321 18.1632 14.1321 18.1589L14.1259 16.3863Z" fill="white" style="fill:white;fill:white;fill-opacity:1;"/>
<path id="Vector_6" d="M56.5287 18.2416C56.5287 18.2477 56.5262 18.2535 56.5219 18.2579C56.5176 18.2622 56.5117 18.2646 56.5056 18.2646H55.3851C55.139 18.2646 54.9029 18.1721 54.7289 18.0074C54.5549 17.8427 54.4571 17.6193 54.4571 17.3864V17.2444C54.4571 17.0115 54.5549 16.7881 54.7289 16.6234C54.9029 16.4587 55.139 16.3662 55.3851 16.3662H56.5056C56.5117 16.3662 56.5176 16.3686 56.5219 16.373C56.5262 16.3773 56.5287 16.3831 56.5287 16.3893V18.2416Z" fill="white" style="fill:white;fill:white;fill-opacity:1;"/>
<path id="Vector_7" d="M27.1332 19.2756C27.1332 19.2803 27.1314 19.2847 27.1281 19.288C27.1248 19.2912 27.1204 19.2931 27.1158 19.2931H27.0778C26.8824 19.2935 26.6888 19.2625 26.5081 19.202C26.3274 19.1415 26.1631 19.0526 26.0247 18.9403C25.8863 18.8281 25.7765 18.6948 25.7014 18.548C25.6264 18.4012 25.5876 18.2438 25.5873 18.0848V17.8705C25.5868 17.5495 25.743 17.2413 26.0216 17.0138C26.3001 16.7862 26.6783 16.658 27.0728 16.6572H27.1108C27.1131 16.6572 27.1154 16.6577 27.1175 16.6586C27.1196 16.6594 27.1215 16.6607 27.1231 16.6623C27.1248 16.664 27.126 16.6659 27.1269 16.668C27.1278 16.6701 27.1282 16.6724 27.1282 16.6747L27.1332 19.2756Z" fill="white" style="fill:white;fill:white;fill-opacity:1;"/>
<path id="Vector_8" d="M28.24 16.675C28.24 16.6728 28.2404 16.6706 28.2413 16.6686C28.2421 16.6665 28.2433 16.6647 28.2449 16.6631C28.2465 16.6616 28.2483 16.6603 28.2504 16.6595C28.2524 16.6586 28.2546 16.6582 28.2568 16.6582H28.2948C28.4905 16.6588 28.6841 16.691 28.8647 16.753C29.0453 16.815 29.2093 16.9055 29.3473 17.0194C29.4853 17.1333 29.5946 17.2683 29.669 17.4167C29.7434 17.5652 29.7814 17.7242 29.7809 17.8846L29.7796 18.0889C29.7786 18.4128 29.6206 18.7229 29.3405 18.951C29.0605 19.1791 28.6812 19.3065 28.2861 19.3053H28.2481C28.2436 19.3053 28.2393 19.3035 28.2362 19.3003C28.233 19.2972 28.2313 19.2929 28.2313 19.2884L28.24 16.675Z" fill="white" style="fill:white;fill:white;fill-opacity:1;"/>
</g>
</svg>
