<svg width="119" height="32" viewBox="0 0 119 32" fill="none" xmlns="http://www.w3.org/2000/svg">
<g id="Group 851212470">
<path id="Vector" d="M93.952 9.62067L98.3376 6.38867H83.6608V25.8015H98.3376V22.5679H87.8496V17.5983H96.7952V14.3663H87.8496V9.62067H93.952Z" fill="white" style="fill:white;fill:white;fill-opacity:1;"/>
<path id="Vector_2" d="M72.5824 13.9551H67.4848V9.62067H75.6208L80.0064 6.38867H63.296V25.8015H72.0416C76.9472 25.8015 79.76 23.5775 79.76 19.7023C79.76 15.9967 77.2112 13.9551 72.5824 13.9551ZM71.8528 22.5679H67.4848V17.1871H71.8528C74.5104 17.1871 75.7488 18.0879 75.7488 19.8783C75.7488 21.7071 74.4384 22.5679 71.8528 22.5679Z" fill="white" style="fill:white;fill:white;fill-opacity:1;"/>
<path id="Vector_3" d="M110.229 6.38867H102.239V25.7999H106.426V20.3023H110.229C115.328 20.3023 118.496 17.6207 118.496 13.3359C118.496 9.05107 115.328 6.38867 110.229 6.38867ZM110.136 17.0703H106.426V9.62067H110.136C112.821 9.62067 114.296 10.9439 114.296 13.3455C114.296 15.7471 112.819 17.0703 110.136 17.0703Z" fill="white" style="fill:white;fill:white;fill-opacity:1;"/>
<path id="Vector_4" d="M56.1055 21.5986C54.9956 22.1998 53.7519 22.5113 52.4895 22.5042C48.7136 22.5042 45.9727 19.8082 45.9727 16.0946C45.9727 12.381 48.7136 9.69298 52.4895 9.69298C53.8544 9.67312 55.1896 10.0915 56.2991 10.8866L59.3039 8.67218L59.1055 8.49778C57.3455 6.95698 55.0079 6.14258 52.3279 6.14258C49.4207 6.14258 46.7824 7.12178 44.8992 8.90258C43.016 10.6834 41.9615 13.2114 41.9615 15.9954C41.9615 18.7794 43.0016 21.349 44.8896 23.1954C46.7776 25.0418 49.4144 26.0658 52.3007 26.0658C55.3199 26.0658 57.9567 25.013 59.7455 23.0978L57.0335 21.0994L56.1055 21.5986Z" fill="white" style="fill:white;fill:white;fill-opacity:1;"/>
<path id="Vector_5" d="M31.9968 15.9998C31.9971 15.0389 31.9114 14.0798 31.7408 13.1342L28.296 15.6718C28.296 15.7806 28.296 15.891 28.296 15.9918C28.2998 18.745 27.3812 21.4202 25.6868 23.5904C23.9924 25.7605 21.62 27.3006 18.948 27.9648C16.2761 28.629 13.4586 28.379 10.9454 27.2548C8.43209 26.1305 6.36784 24.1968 5.08204 21.7622C3.79623 19.3276 3.36299 16.5325 3.85146 13.8229C4.33993 11.1133 5.72194 8.64545 7.77696 6.81313C9.83197 4.98081 12.4415 3.88965 15.1892 3.71381C17.9368 3.53797 20.6642 4.28757 22.936 5.84298L26.048 3.54859C23.2241 1.26979 19.7095 0.0185573 16.0809 0.000204796C12.4523 -0.0181477 8.92524 1.19747 6.07847 3.44759C3.2317 5.6977 1.23433 8.84865 0.414119 12.3834C-0.406094 15.9181 -0.000428772 19.6267 1.56455 22.9005C3.12952 26.1744 5.76085 28.819 9.02674 30.4005C12.2926 31.9819 15.9991 32.4063 19.5379 31.6039C23.0768 30.8016 26.2378 28.8201 28.5022 25.9847C30.7666 23.1493 32 19.6284 32 15.9998H31.9968Z" fill="white" style="fill:white;fill:white;fill-opacity:1;"/>
<path id="Vector_6" d="M28.6576 6.21729C29.4183 7.19986 30.0626 8.26724 30.5776 9.39808L15.9968 20.1437L9.90564 16.3245V11.7309L15.9968 15.5485L28.6576 6.21729Z" fill="white" style="fill:white;fill:white;fill-opacity:1;"/>
</g>
</svg>
