<svg width="101" height="26" viewBox="0 0 101 26" fill="none" xmlns="http://www.w3.org/2000/svg">
<g id="Group 851212471">
<g id="Group">
<path id="Vector" d="M0.942478 1.00584C0.90982 1.00584 0.900335 1.0206 0.914023 1.05014C2.9897 5.53287 5.06562 10.0214 7.14178 14.5156C7.56788 15.4377 7.95581 16.34 8.24325 17.2347C8.63262 18.445 8.83181 19.8044 8.85954 21.1137C8.87803 21.9829 8.88283 23.1586 8.87395 24.6407C8.87395 24.6544 8.88079 24.6612 8.89448 24.6612H12.8555C12.8661 24.6612 12.8714 24.6559 12.8714 24.6454C12.8807 22.9887 12.8775 21.8001 12.8617 21.0794C12.821 19.2183 12.5577 17.44 11.9017 15.6848C11.4782 14.5527 10.9775 13.4484 10.4728 12.3509C8.73599 8.57315 7.0001 4.79616 5.26517 1.01988C5.2606 1.00956 5.25256 1.00439 5.24103 1.00439L0.942478 1.00584Z" stroke="white" stroke-opacity="0.36" style="stroke:white;stroke:white;stroke-opacity:0.36;" stroke-width="0.3"/>
<path id="Vector_2" d="M20.6113 1.02318C20.612 1.0215 20.6123 1.01967 20.6121 1.01786C20.6119 1.01604 20.6113 1.01429 20.6103 1.01276C20.6094 1.01124 20.608 1.00997 20.6064 1.00909C20.6048 1.00821 20.603 1.00773 20.6012 1.00769L16.4348 1.00049C16.4327 1.00053 16.4306 1.0012 16.4288 1.00241C16.427 1.00363 16.4256 1.00534 16.4247 1.00733L11.4476 12.4262C11.4469 12.4279 11.4466 12.4297 11.4468 12.4315C11.4469 12.4333 11.4475 12.4351 11.4485 12.4366C11.4495 12.4381 11.4509 12.4394 11.4525 12.4403C11.4541 12.4412 11.4559 12.4417 11.4577 12.4417H15.561C15.5631 12.4417 15.5652 12.4411 15.567 12.4399C15.5688 12.4388 15.5702 12.4371 15.5711 12.4352L20.6113 1.02318Z" stroke="white" stroke-opacity="0.36" style="stroke:white;stroke:white;stroke-opacity:0.36;" stroke-width="0.3"/>
<path id="Vector_3" d="M63.3054 22.4838L63.5075 24.6435C63.5085 24.6555 63.5151 24.6615 63.5273 24.6615H67.2463C67.2583 24.6615 67.2643 24.6555 67.2643 24.6435V1.0209C67.2643 1.00673 67.2574 0.999766 67.2435 1.00001L63.2201 1.00793C63.2088 1.00793 63.2032 1.01357 63.2032 1.02486V9.4977C63.2031 9.50196 63.2018 9.50611 63.1992 9.50952C63.1967 9.51293 63.1931 9.51543 63.189 9.51664C63.1849 9.51785 63.1805 9.51772 63.1765 9.51625C63.1725 9.51479 63.1691 9.51207 63.1668 9.50851C62.3841 8.30366 61.0888 7.42803 59.6369 7.24649C58.5829 7.11466 57.4847 7.25225 56.5035 7.6672C53.8806 8.77767 52.6664 11.6113 52.3599 14.2858C52.2002 15.6785 52.2097 17.039 52.3883 18.3671C52.7734 21.2289 54.2167 24.1363 57.2967 24.8384C59.0897 25.2472 60.9775 24.896 62.3336 23.6076C62.6917 23.2676 63.0083 22.891 63.2835 22.478C63.296 22.4593 63.3033 22.4612 63.3054 22.4838Z" stroke="white" stroke-opacity="0.36" style="stroke:white;stroke:white;stroke-opacity:0.36;" stroke-width="0.3"/>
<path id="Vector_4" d="M74.0601 17.5793C74.0589 17.5584 74.0688 17.5479 74.0897 17.5479H83.8412C83.8515 17.5479 83.8568 17.5428 83.8571 17.5324C83.8664 16.553 83.8632 15.6585 83.8473 14.849C83.7908 11.997 82.9631 8.77109 79.9691 7.66205C78.6263 7.16426 77.1059 7.08898 75.7052 7.32311C71.9382 7.95345 70.2345 11.2103 69.9302 14.6934C69.7205 17.0959 69.9366 19.828 71.2654 21.8948C72.9788 24.5595 76.0916 25.1707 79.0445 24.9582C80.6758 24.8411 82.2758 24.4291 83.6712 23.5171C83.6827 23.5094 83.6885 23.4987 83.6885 23.485L83.6896 20.2314C83.6896 20.2165 83.6838 20.2125 83.6723 20.2195C82.2433 21.1051 80.6881 21.6224 79.0067 21.7716C77.6718 21.8901 76.0117 21.7359 75.0611 20.6485C74.34 19.8229 74.1271 18.6155 74.0601 17.5793Z" stroke="white" stroke-opacity="0.36" style="stroke:white;stroke:white;stroke-opacity:0.36;" stroke-width="0.3"/>
<path id="Vector_5" d="M28.4931 13.9697C26.7652 13.9834 25.4779 14.0215 23.8916 14.341C21.6699 14.7884 19.4825 15.9291 18.9959 18.3648C18.9145 18.7725 18.8812 19.2393 18.8961 19.7652C18.9757 22.6057 20.6416 24.6404 23.5548 24.867C25.1732 24.9927 26.7699 24.7528 27.9906 23.6315C28.0915 23.5391 28.1916 23.4457 28.291 23.3513C28.3559 23.2901 28.4117 23.2926 28.4942 23.3034C28.5059 23.3051 28.5127 23.3118 28.5144 23.3235C28.5684 23.7489 28.6509 24.2305 28.8176 24.6401C28.8234 24.6542 28.834 24.6613 28.8493 24.6613H32.7553C32.7721 24.6613 32.7798 24.6529 32.7783 24.6361C32.6465 23.2512 32.5791 21.868 32.5784 20.4834C32.5773 17.8626 32.5957 15.2401 32.5618 12.6197C32.5534 11.962 32.4615 11.3188 32.2859 10.6901C31.7507 8.77532 30.2865 7.76749 28.3721 7.44404C25.569 6.97038 22.6381 7.41918 20.1294 8.82466C20.1198 8.82994 20.115 8.83823 20.115 8.84951V12.1795C20.115 12.1891 20.119 12.1912 20.1269 12.1856C20.5927 11.8658 21.1166 11.5879 21.6984 11.3521C22.8218 10.8969 24.0184 10.5828 25.2052 10.5169C26.6979 10.4344 28.246 10.6206 28.4718 12.4266C28.5352 12.9323 28.5035 13.5176 28.5107 13.9517C28.511 13.9634 28.5051 13.9694 28.4931 13.9697Z" stroke="white" stroke-opacity="0.36" style="stroke:white;stroke:white;stroke-opacity:0.36;" stroke-width="0.3"/>
<path id="Vector_6" d="M39.9688 8.97114C39.9644 8.97134 39.9602 8.96982 39.9569 8.96693C39.9537 8.96403 39.9517 8.95998 39.9515 8.95565L39.8524 7.55125C39.8517 7.53997 39.8457 7.53433 39.8344 7.53433H35.9094C35.8974 7.53433 35.8914 7.54033 35.8914 7.55233V24.6425C35.8914 24.6552 35.8977 24.6615 35.9104 24.6615H39.9335C39.9462 24.6615 39.9525 24.6552 39.9525 24.6425V12.3977C39.9525 12.3871 39.9559 12.3777 39.9626 12.3696C40.7504 11.4255 41.7557 10.8229 42.9843 10.6918C44.022 10.5812 45.1739 10.811 45.3911 12.013C45.4274 12.214 45.4455 12.3488 45.4455 12.4175C45.4453 16.4922 45.4453 20.5675 45.4455 24.6432C45.4455 24.6554 45.4516 24.6615 45.4639 24.6615H49.4988C49.5034 24.6615 49.5079 24.6597 49.5112 24.6564C49.5146 24.6531 49.5164 24.6486 49.5164 24.6439C49.5169 20.6234 49.5137 16.6018 49.5067 12.5792C49.5049 11.4201 49.4764 10.1158 48.8659 9.05723C48.0915 7.71406 46.6385 7.32145 45.166 7.27391C43.3312 7.21483 41.5244 7.63662 40.1802 8.95277C40.173 8.95973 40.1645 8.96345 40.1546 8.96394L39.9688 8.97114Z" stroke="white" stroke-opacity="0.36" style="stroke:white;stroke:white;stroke-opacity:0.36;" stroke-width="0.3"/>
<path id="Vector_7" d="M92.3711 18.8864L96.0065 24.6463C96.013 24.6564 96.0222 24.6614 96.0342 24.6614L100.573 24.6618C100.575 24.6618 100.576 24.6613 100.578 24.6605C100.579 24.6597 100.58 24.6586 100.581 24.6572C100.582 24.6559 100.582 24.6543 100.582 24.6528C100.582 24.6512 100.581 24.6497 100.581 24.6484L95.0044 15.8615C94.9975 15.8505 94.9972 15.8393 95.0037 15.828L99.8346 7.54643C99.8353 7.54517 99.8357 7.54376 99.8357 7.54233C99.8356 7.5409 99.8352 7.5395 99.8345 7.53827C99.8338 7.53703 99.8328 7.53601 99.8315 7.53529C99.8303 7.53458 99.8289 7.53419 99.8274 7.53418H95.8095C95.7891 7.53418 95.7738 7.54307 95.7637 7.56084L92.8573 12.6864C92.8477 12.7034 92.8376 12.7037 92.8271 12.6871L89.5706 7.55003C89.5638 7.53946 89.5542 7.53418 89.5417 7.53418H85.0119C85.0094 7.53414 85.0069 7.53479 85.0047 7.53608C85.0026 7.53736 85.0008 7.53922 84.9996 7.54147C84.9983 7.54372 84.9978 7.54627 84.9978 7.54885C84.9979 7.55144 84.9987 7.55396 85.0001 7.55615L90.1699 15.7293C90.173 15.7341 90.1746 15.7396 90.1747 15.7452C90.1747 15.7509 90.1732 15.7565 90.1703 15.7614L84.794 24.6409C84.7863 24.6534 84.7899 24.6597 84.8048 24.66C86.1556 24.6633 87.5062 24.6634 88.8567 24.6603C88.9082 24.66 88.8948 24.6852 88.9301 24.6265C90.0765 22.716 91.2182 20.8028 92.3552 18.8868C92.3603 18.8781 92.3655 18.878 92.3711 18.8864Z" stroke="white" stroke-opacity="0.36" style="stroke:white;stroke:white;stroke-opacity:0.36;" stroke-width="0.3"/>
<path id="Vector_8" d="M63.1913 16.5387C63.2274 14.693 63.1643 11.4009 61.046 10.5915C60.4585 10.3671 59.7108 10.348 59.1031 10.4842C56.5069 11.067 56.4229 14.6404 56.4503 16.6561C56.4602 17.364 56.531 18.0653 56.6628 18.76C56.7986 19.4746 57.0302 20.1532 57.4556 20.7378C58.1587 21.7035 59.4053 21.9553 60.5291 21.7179C62.834 21.2313 63.155 18.4149 63.1913 16.5387Z" stroke="white" stroke-opacity="0.36" style="stroke:white;stroke:white;stroke-opacity:0.36;" stroke-width="0.3"/>
<path id="Vector_9" d="M76.9194 10.4025C74.6704 10.5005 74.1164 12.7107 74.0649 14.5314C74.0646 14.543 74.0703 14.5487 74.0818 14.5487H79.7084C79.7187 14.5487 79.7241 14.5435 79.7246 14.5329C79.7812 12.6447 79.4116 10.2941 76.9194 10.4025Z" stroke="white" stroke-opacity="0.36" style="stroke:white;stroke:white;stroke-opacity:0.36;" stroke-width="0.3"/>
<path id="Vector_10" d="M24.4668 21.7421C25.0439 21.9575 25.6317 21.9734 26.2563 21.8887C27.1952 21.7619 27.9416 21.3326 28.4956 20.6007C28.5035 20.5904 28.5075 20.5787 28.5075 20.5657V16.6753C28.5075 16.6733 28.5071 16.6713 28.5063 16.6694C28.5056 16.6676 28.5044 16.6659 28.503 16.6645C28.5016 16.6631 28.4999 16.6619 28.4981 16.6612C28.4963 16.6605 28.4943 16.6601 28.4924 16.6602C27.6102 16.6684 26.7476 16.6648 25.8712 16.7841C24.6833 16.9462 23.4161 17.3489 23.1298 18.6628C22.8704 19.8526 23.2105 21.2732 24.4668 21.7421Z" stroke="white" stroke-opacity="0.36" style="stroke:white;stroke:white;stroke-opacity:0.36;" stroke-width="0.3"/>
</g>
<path id="Vector_11" d="M0.942478 1.00584L5.24103 1.00439C5.25256 1.00439 5.2606 1.00956 5.26517 1.01988C7.0001 4.79616 8.73599 8.57315 10.4728 12.3509C10.9775 13.4484 11.4782 14.5527 11.9017 15.6848C12.5577 17.44 12.821 19.2183 12.8617 21.0794C12.8775 21.8001 12.8807 22.9887 12.8714 24.6454C12.8714 24.6559 12.8661 24.6612 12.8555 24.6612H8.89448C8.88079 24.6612 8.87395 24.6544 8.87395 24.6407C8.88283 23.1586 8.87803 21.9829 8.85954 21.1137C8.83181 19.8044 8.63262 18.445 8.24325 17.2347C7.95581 16.34 7.56788 15.4377 7.14178 14.5156C5.06562 10.0214 2.9897 5.53287 0.914023 1.05014C0.900335 1.0206 0.90982 1.00584 0.942478 1.00584Z" fill="white" style="fill:white;fill:white;fill-opacity:1;"/>
<path id="Vector_12" d="M20.6113 1.02318L15.5711 12.4352C15.5702 12.4371 15.5688 12.4388 15.567 12.4399C15.5652 12.4411 15.5631 12.4417 15.561 12.4417H11.4577C11.4559 12.4417 11.4541 12.4412 11.4525 12.4403C11.4509 12.4394 11.4495 12.4381 11.4485 12.4366C11.4475 12.4351 11.4469 12.4333 11.4468 12.4315C11.4466 12.4297 11.4469 12.4279 11.4476 12.4262L16.4247 1.00733C16.4256 1.00534 16.427 1.00363 16.4288 1.00241C16.4306 1.0012 16.4327 1.00053 16.4348 1.00049L20.6012 1.00769C20.603 1.00773 20.6048 1.00821 20.6064 1.00909C20.608 1.00997 20.6094 1.01124 20.6103 1.01276C20.6113 1.01429 20.6119 1.01604 20.6121 1.01786C20.6123 1.01967 20.612 1.0215 20.6113 1.02318Z" fill="white" style="fill:white;fill:white;fill-opacity:1;"/>
<path id="Vector_13" d="M63.2835 22.478C63.0083 22.891 62.6917 23.2676 62.3336 23.6076C60.9775 24.896 59.0897 25.2472 57.2967 24.8384C54.2167 24.1363 52.7734 21.2289 52.3883 18.3671C52.2097 17.039 52.2002 15.6785 52.3599 14.2858C52.6664 11.6113 53.8806 8.77767 56.5035 7.6672C57.4847 7.25225 58.5829 7.11466 59.6369 7.24649C61.0888 7.42803 62.3841 8.30366 63.1668 9.50851C63.1691 9.51207 63.1725 9.51479 63.1765 9.51625C63.1805 9.51772 63.1849 9.51785 63.189 9.51664C63.1931 9.51543 63.1967 9.51293 63.1992 9.50952C63.2018 9.50611 63.2031 9.50196 63.2032 9.4977V1.02486C63.2032 1.01357 63.2088 1.00793 63.2201 1.00793L67.2435 1.00001C67.2574 0.999766 67.2643 1.00673 67.2643 1.0209V24.6435C67.2643 24.6555 67.2583 24.6615 67.2463 24.6615H63.5273C63.5151 24.6615 63.5085 24.6555 63.5075 24.6435L63.3054 22.4838C63.3033 22.4612 63.296 22.4593 63.2835 22.478ZM63.1913 16.5388C63.2273 14.6931 63.1643 11.401 61.046 10.5916C60.4585 10.3672 59.7107 10.3481 59.1031 10.4843C56.5068 11.0671 56.4229 14.6406 56.4502 16.6562C56.4601 17.3641 56.5309 18.0654 56.6628 18.7601C56.7985 19.4747 57.0302 20.1533 57.4555 20.7379C58.1586 21.7036 59.4053 21.9554 60.5291 21.718C62.834 21.2314 63.1549 18.415 63.1913 16.5388Z" fill="white" style="fill:white;fill:white;fill-opacity:1;"/>
<path id="Vector_14" d="M74.0601 17.5793C74.1271 18.6155 74.34 19.8229 75.0611 20.6485C76.0117 21.7359 77.6718 21.8901 79.0067 21.7716C80.6881 21.6224 82.2433 21.1051 83.6723 20.2195C83.6838 20.2125 83.6896 20.2165 83.6896 20.2314L83.6885 23.485C83.6885 23.4987 83.6827 23.5094 83.6712 23.5171C82.2758 24.4291 80.6758 24.8411 79.0445 24.9582C76.0916 25.1707 72.9788 24.5595 71.2654 21.8948C69.9366 19.828 69.7205 17.0959 69.9302 14.6934C70.2345 11.2103 71.9382 7.95345 75.7052 7.32311C77.1059 7.08898 78.6263 7.16426 79.9691 7.66205C82.9631 8.77109 83.7908 11.997 83.8473 14.849C83.8632 15.6585 83.8664 16.553 83.8571 17.5324C83.8568 17.5428 83.8515 17.5479 83.8412 17.5479H74.0897C74.0688 17.5479 74.0589 17.5584 74.0601 17.5793ZM76.9194 10.4031C74.6703 10.5011 74.1163 12.7112 74.0648 14.532C74.0646 14.5436 74.0702 14.5493 74.0818 14.5493H79.7083C79.7187 14.5493 79.7241 14.544 79.7246 14.5335C79.7811 12.6453 79.4115 10.2947 76.9194 10.4031Z" fill="white" style="fill:white;fill:white;fill-opacity:1;"/>
<path id="Vector_15" d="M28.5107 13.9517C28.5035 13.5176 28.5352 12.9323 28.4718 12.4266C28.246 10.6206 26.6979 10.4344 25.2052 10.5169C24.0184 10.5828 22.8218 10.8969 21.6984 11.3521C21.1166 11.5879 20.5927 11.8658 20.1269 12.1856C20.119 12.1912 20.115 12.1891 20.115 12.1795V8.84951C20.115 8.83823 20.1198 8.82994 20.1294 8.82466C22.6381 7.41918 25.569 6.97038 28.3721 7.44404C30.2865 7.76749 31.7507 8.77532 32.2859 10.6901C32.4615 11.3188 32.5534 11.962 32.5618 12.6197C32.5957 15.2401 32.5773 17.8626 32.5784 20.4834C32.5791 21.868 32.6465 23.2512 32.7783 24.6361C32.7798 24.6529 32.7721 24.6613 32.7553 24.6613H28.8493C28.834 24.6613 28.8234 24.6542 28.8176 24.6401C28.6509 24.2305 28.5684 23.7489 28.5143 23.3235C28.5127 23.3118 28.5059 23.3051 28.4942 23.3034C28.4117 23.2926 28.3559 23.2901 28.291 23.3513C28.1916 23.4457 28.0915 23.5391 27.9906 23.6315C26.7699 24.7528 25.1732 24.9927 23.5548 24.867C20.6416 24.6404 18.9757 22.6057 18.8961 19.7652C18.8812 19.2393 18.9145 18.7725 18.9959 18.3648C19.4825 15.9291 21.6699 14.7884 23.8916 14.341C25.4779 14.0215 26.7652 13.9834 28.4931 13.9697C28.5051 13.9694 28.511 13.9634 28.5107 13.9517ZM24.4669 21.7419C25.0439 21.9573 25.6317 21.9732 26.2563 21.8885C27.1952 21.7617 27.9416 21.3324 28.4956 20.6005C28.5035 20.5902 28.5075 20.5785 28.5075 20.5655V16.6751C28.5075 16.6731 28.5071 16.6711 28.5063 16.6692C28.5056 16.6674 28.5045 16.6657 28.503 16.6643C28.5016 16.6629 28.5 16.6617 28.4981 16.661C28.4963 16.6603 28.4943 16.6599 28.4924 16.66C27.6103 16.6682 26.7476 16.6646 25.8712 16.7839C24.6833 16.946 23.4162 17.3487 23.1298 18.6626C22.8705 19.8524 23.2105 21.273 24.4669 21.7419Z" fill="white" style="fill:white;fill:white;fill-opacity:1;"/>
<path id="Vector_16" d="M39.9688 8.97114L40.1546 8.96394C40.1645 8.96345 40.173 8.95973 40.1802 8.95277C41.5244 7.63662 43.3312 7.21483 45.166 7.27391C46.6385 7.32145 48.0915 7.71406 48.8659 9.05723C49.4764 10.1158 49.5049 11.4201 49.5067 12.5792C49.5137 16.6018 49.5169 20.6234 49.5164 24.6439C49.5164 24.6486 49.5146 24.6531 49.5112 24.6564C49.5079 24.6597 49.5034 24.6615 49.4988 24.6615H45.4639C45.4516 24.6615 45.4455 24.6554 45.4455 24.6432C45.4453 20.5675 45.4453 16.4922 45.4455 12.4175C45.4455 12.3488 45.4274 12.214 45.3911 12.013C45.1739 10.811 44.022 10.5812 42.9843 10.6918C41.7557 10.8229 40.7504 11.4255 39.9626 12.3696C39.9559 12.3777 39.9525 12.3871 39.9525 12.3977V24.6425C39.9525 24.6552 39.9462 24.6615 39.9335 24.6615H35.9104C35.8977 24.6615 35.8914 24.6552 35.8914 24.6425V7.55233C35.8914 7.54033 35.8974 7.53433 35.9094 7.53433H39.8344C39.8457 7.53433 39.8517 7.53997 39.8524 7.55125L39.9515 8.95565C39.9517 8.95998 39.9537 8.96403 39.9569 8.96693C39.9602 8.96982 39.9644 8.97134 39.9688 8.97114Z" fill="white" style="fill:white;fill:white;fill-opacity:1;"/>
<path id="Vector_17" d="M92.3552 18.8868C91.2182 20.8028 90.0765 22.716 88.9301 24.6265C88.8948 24.6852 88.9082 24.66 88.8567 24.6603C87.5062 24.6634 86.1556 24.6633 84.8048 24.66C84.7899 24.6597 84.7863 24.6534 84.794 24.6409L90.1703 15.7614C90.1732 15.7565 90.1747 15.7509 90.1747 15.7452C90.1746 15.7396 90.173 15.7341 90.1699 15.7293L85.0001 7.55615C84.9987 7.55396 84.9979 7.55144 84.9978 7.54885C84.9978 7.54627 84.9983 7.54372 84.9996 7.54147C85.0008 7.53922 85.0026 7.53736 85.0047 7.53608C85.0069 7.53479 85.0094 7.53414 85.0119 7.53418H89.5417C89.5542 7.53418 89.5638 7.53946 89.5706 7.55003L92.8271 12.6871C92.8376 12.7037 92.8477 12.7034 92.8573 12.6864L95.7637 7.56084C95.7738 7.54307 95.7891 7.53418 95.8095 7.53418H99.8274C99.8289 7.53419 99.8303 7.53458 99.8315 7.53529C99.8328 7.53601 99.8338 7.53703 99.8345 7.53827C99.8352 7.5395 99.8356 7.5409 99.8357 7.54233C99.8357 7.54376 99.8353 7.54517 99.8346 7.54643L95.0037 15.828C94.9972 15.8393 94.9975 15.8505 95.0044 15.8615L100.581 24.6484C100.581 24.6497 100.582 24.6512 100.582 24.6528C100.582 24.6543 100.582 24.6559 100.581 24.6572C100.58 24.6586 100.579 24.6597 100.578 24.6605C100.576 24.6613 100.575 24.6618 100.573 24.6618L96.0342 24.6614C96.0222 24.6614 96.013 24.6564 96.0065 24.6463L92.3711 18.8864C92.3655 18.878 92.3603 18.8781 92.3552 18.8868Z" fill="white" style="fill:white;fill:white;fill-opacity:1;"/>
</g>
</svg>
