<svg width="36" height="36" viewBox="0 0 36 36" fill="none" xmlns="http://www.w3.org/2000/svg">
<g id="Group 851212501">
<g id="Group 56">
<rect id="Rectangle 149" width="36" height="36" rx="8" fill="white" fill-opacity="0.16" style="fill:white;fill:white;fill-opacity:0.16;"/>
</g>
<path id="Vector" d="M18.2234 9C17.0122 9 15.8128 9.23857 14.6938 9.70209C13.5747 10.1656 12.558 10.845 11.7015 11.7015C9.97175 13.4312 9 15.7772 9 18.2234C9 22.3002 11.6471 25.759 15.3088 26.9857C15.77 27.0595 15.9176 26.7736 15.9176 26.5245V24.9658C13.3627 25.5192 12.8185 23.7298 12.8185 23.7298C12.3942 22.6599 11.7947 22.374 11.7947 22.374C10.9554 21.8021 11.8593 21.8206 11.8593 21.8206C12.7816 21.8851 13.2705 22.7706 13.2705 22.7706C14.0729 24.1726 15.4287 23.7575 15.9545 23.5361C16.0375 22.9366 16.2773 22.5308 16.5356 22.3002C14.4879 22.0696 12.3389 21.2764 12.3389 17.7623C12.3389 16.7385 12.6894 15.9176 13.2889 15.2627C13.1967 15.0321 12.8738 14.0729 13.3811 12.8277C13.3811 12.8277 14.1559 12.5787 15.9176 13.7685C16.6462 13.5656 17.4395 13.4641 18.2234 13.4641C19.0074 13.4641 19.8007 13.5656 20.5293 13.7685C22.291 12.5787 23.0658 12.8277 23.0658 12.8277C23.573 14.0729 23.2502 15.0321 23.158 15.2627C23.7575 15.9176 24.108 16.7385 24.108 17.7623C24.108 21.2856 21.9497 22.0604 19.8929 22.291C20.2249 22.5769 20.5293 23.1395 20.5293 23.9973V26.5245C20.5293 26.7736 20.6769 27.0687 21.1473 26.9857C24.809 25.7498 27.4469 22.3002 27.4469 18.2234C27.4469 17.0122 27.2083 15.8128 26.7448 14.6938C26.2813 13.5747 25.6019 12.558 24.7454 11.7015C23.8889 10.845 22.8721 10.1656 21.7531 9.70209C20.6341 9.23857 19.4347 9 18.2234 9Z" fill="white" style="fill:white;fill:white;fill-opacity:1;"/>
</g>
</svg>
