<svg width="36" height="36" viewBox="0 0 36 36" fill="none" xmlns="http://www.w3.org/2000/svg">
<g id="Group 851212502">
<g id="Group 56">
<rect id="Rectangle 149" width="36" height="36" rx="8" fill="white" fill-opacity="0.16" style="fill:white;fill:white;fill-opacity:0.16;"/>
</g>
<path id="Vector" d="M12.104 12.1559C12.688 12.6106 12.906 12.5761 14.002 12.5061L24.334 11.9113C24.554 11.9113 24.371 11.7003 24.298 11.6658L22.582 10.4763C22.253 10.2316 21.815 9.95058 20.976 10.0206L10.971 10.7209C10.607 10.7554 10.534 10.931 10.679 11.071L12.104 12.1559ZM12.724 14.4659V24.8932C12.724 25.4543 13.016 25.6635 13.674 25.6289L25.028 24.9987C25.685 24.9642 25.758 24.5785 25.758 24.1238V13.7656C25.758 13.3109 25.576 13.0653 25.174 13.1008L13.308 13.7656C12.87 13.8001 12.724 14.0102 12.724 14.4659ZM23.934 15.0251C24.006 15.3398 23.934 15.6554 23.604 15.6909L23.057 15.7954V23.4936C22.582 23.7392 22.144 23.8792 21.779 23.8792C21.195 23.8792 21.049 23.7037 20.611 23.1789L17.032 17.7898V23.0044L18.165 23.249C18.165 23.249 18.165 23.8792 17.251 23.8792L14.732 24.0193C14.659 23.8792 14.732 23.53 14.988 23.4591L15.645 23.2845V16.3902L14.732 16.3201C14.659 16.0045 14.842 15.5499 15.353 15.5144L18.055 15.3407L21.779 20.799V15.971L20.829 15.8664C20.757 15.4808 21.049 15.2016 21.414 15.1661L23.934 15.0261V15.0251ZM10.131 9.77599L20.537 9.04119C21.814 8.93567 22.143 9.00665 22.947 9.56591L26.268 11.8058C26.816 12.1905 26.999 12.295 26.999 12.7152V24.9987C26.999 25.769 26.707 26.2237 25.685 26.2937L13.6 26.994C12.833 27.0285 12.468 26.924 12.066 26.4338L9.62 23.389C9.182 22.8288 9 22.4096 9 21.9185V11.001C9 10.3707 9.291 9.84602 10.131 9.77599Z" fill="white" style="fill:white;fill:white;fill-opacity:1;"/>
</g>
</svg>
