<svg width="24" height="24" viewBox="0 0 24 24" fill="none" xmlns="http://www.w3.org/2000/svg">
<g id="Group 851212435">
<g id="&#226;&#134;&#179; Icon Color">
<path fill-rule="evenodd" clip-rule="evenodd" d="M3.51472 3.51472C5.68511 1.34433 8.68659 0 12 0C15.3134 0 18.3149 1.34433 20.4853 3.51472C22.6557 5.68511 24 8.68659 24 12C24 15.3134 22.6557 18.3149 20.4853 20.4853C18.3149 22.6557 15.3134 24 12 24C8.68659 24 5.68511 22.6557 3.51472 20.4853C1.34433 18.3149 0 15.3134 0 12C0 8.68659 1.34433 5.68511 3.51472 3.51472ZM12 2.16C9.28246 2.16 6.82394 3.2602 5.04207 5.04207C3.2602 6.82394 2.16 9.28246 2.16 12C2.16 14.7175 3.2602 17.1761 5.04207 18.9579C6.82394 20.7398 9.28246 21.84 12 21.84C14.7175 21.84 17.1761 20.7398 18.9579 18.9579C20.7398 17.1761 21.84 14.7175 21.84 12C21.84 9.28246 20.7398 6.82394 18.9579 5.04207C17.1761 3.2602 14.7175 2.16 12 2.16Z" fill="white" style="fill:white;fill:white;fill-opacity:1;"/>
<path fill-rule="evenodd" clip-rule="evenodd" d="M8.39997 8.28C8.39997 7.68353 8.8835 7.2 9.47997 7.2H15.72C16.3164 7.2 16.8 7.68353 16.8 8.28V14.52C16.8 15.1165 16.3164 15.6 15.72 15.6C15.1235 15.6 14.64 15.1165 14.64 14.52V10.8874L9.04364 16.4837C8.62187 16.9054 7.93806 16.9054 7.51629 16.4837C7.09452 16.0619 7.09452 15.3781 7.51629 14.9563L13.1126 9.36H9.47997C8.8835 9.36 8.39997 8.87647 8.39997 8.28Z" fill="white" style="fill:white;fill:white;fill-opacity:1;"/>
</g>
</g>
</svg>
