<svg width="48" height="48" viewBox="0 0 48 48" fill="none" xmlns="http://www.w3.org/2000/svg">
<g id="Group 55">
<rect id="Rectangle 149" width="48" height="48" rx="12" fill="white" fill-opacity="0.16" style="fill:white;fill:white;fill-opacity:0.16;"/>
<path id="Vector" d="M32.6008 15.6124C32.1371 15.5587 31.5556 15.6845 30.9041 15.9194C29.7139 16.3484 14.501 22.8084 13.6229 23.1818C12.7896 23.5364 12.0012 23.9225 12 24.4815C12 24.8739 12.2342 25.0948 12.8772 25.3241C13.5462 25.5629 15.2316 26.0749 16.2268 26.3491C17.1854 26.6138 18.2774 26.3822 18.8885 26.0028C19.5362 25.5998 27.0179 20.5939 27.5545 20.1554C28.0911 19.7169 28.517 20.2802 28.0785 20.7187C27.6388 21.1584 22.5044 26.1413 21.8272 26.8315C21.0045 27.6695 21.5891 28.5386 22.1411 28.8861C22.7711 29.2832 27.3007 32.32 27.9839 32.8082C28.667 33.2951 29.3587 33.5169 29.9922 33.5169C30.6257 33.5169 30.9578 32.682 31.2734 31.714C31.6434 30.5805 33.3761 19.2773 33.5888 17.0505C33.6526 16.3768 33.4405 15.9275 33.0232 15.7278C32.8971 15.6672 32.7554 15.6302 32.6008 15.6124Z" fill="white" style="fill:white;fill:white;fill-opacity:1;"/>
</g>
</svg>
